<svg width="23" height="23" viewBox="0 0 23 23" fill="none" xmlns="http://www.w3.org/2000/svg">
<path d="M6.96053 0.661621C3.12255 0.661621 0 3.64841 0 7.31952V16.0037C0 19.6748 3.12255 22.6616 6.96053 22.6616H16.0395C19.8774 22.6616 23 19.6748 23 16.0037V7.31952C23 3.64841 19.8774 0.661621 16.0395 0.661621H6.96053ZM17.5526 4.71425C18.2214 4.71425 18.7632 5.23241 18.7632 5.87215C18.7632 6.51131 18.2214 7.03004 17.5526 7.03004C16.8838 7.03004 16.3421 6.51131 16.3421 5.87215C16.3421 5.23241 16.8838 4.71425 17.5526 4.71425ZM11.5 5.87215C14.8374 5.87215 17.5526 8.46931 17.5526 11.6616C17.5526 14.8539 14.8374 17.4511 11.5 17.4511C8.16258 17.4511 5.44737 14.8539 5.44737 11.6616C5.44737 8.46931 8.16258 5.87215 11.5 5.87215ZM11.5 7.60899C10.9436 7.60899 10.3927 7.71381 9.87863 7.91748C9.36459 8.12114 8.89753 8.41966 8.5041 8.79598C8.11067 9.1723 7.79859 9.61906 7.58567 10.1107C7.37275 10.6024 7.26316 11.1294 7.26316 11.6616C7.26316 12.1938 7.37275 12.7208 7.58567 13.2125C7.79859 13.7042 8.11067 14.1509 8.5041 14.5273C8.89753 14.9036 9.36459 15.2021 9.87863 15.4058C10.3927 15.6094 10.9436 15.7143 11.5 15.7143C12.0564 15.7143 12.6073 15.6094 13.1214 15.4058C13.6354 15.2021 14.1025 14.9036 14.4959 14.5273C14.8893 14.1509 15.2014 13.7042 15.4143 13.2125C15.6273 12.7208 15.7368 12.1938 15.7368 11.6616C15.7368 11.1294 15.6273 10.6024 15.4143 10.1107C15.2014 9.61906 14.8893 9.1723 14.4959 8.79598C14.1025 8.41966 13.6354 8.12114 13.1214 7.91748C12.6073 7.71381 12.0564 7.60899 11.5 7.60899Z" fill="url(#paint0_linear)"/>
<defs>
<linearGradient id="paint0_linear" x1="11.5" y1="22.6616" x2="3.19019" y2="4.45419" gradientUnits="userSpaceOnUse">
<stop stop-color="#283C79"/>
<stop offset="1" stop-color="#4479BC"/>
</linearGradient>
</defs>
</svg>
