<svg width="25" height="23" viewBox="0 0 25 23" fill="none" xmlns="http://www.w3.org/2000/svg">
<path d="M24.5279 0.964057C24.1015 0.614256 23.4317 0.564206 22.7391 0.833156H22.738C22.0096 1.11586 2.12018 9.36808 1.3105 9.70523C1.16323 9.75473 -0.122925 10.2189 0.00955743 11.2529C0.127825 12.1852 1.16153 12.5713 1.28776 12.6158L6.34427 14.2906C6.67974 15.3708 7.91643 19.3561 8.18992 20.2075C8.3605 20.7383 8.63854 21.4357 9.12583 21.5792C9.55341 21.7387 9.97872 21.593 10.2539 21.384L13.3454 18.6103L18.3359 22.3751L18.4548 22.4438C18.7936 22.589 19.1183 22.6616 19.4282 22.6616C19.6676 22.6616 19.8973 22.6182 20.1168 22.5313C20.8645 22.2343 21.1635 21.5451 21.1948 21.467L24.9225 2.72461C25.15 1.72361 24.8338 1.21431 24.5279 0.964057ZM10.8038 14.9605L9.09797 19.3605L7.39218 13.8605L20.4699 4.51047L10.8038 14.9605Z" fill="url(#paint0_linear)"/>
<defs>
<linearGradient id="paint0_linear" x1="12.5" y1="22.6616" x2="4.64704" y2="3.95896" gradientUnits="userSpaceOnUse">
<stop stop-color="#283C79"/>
<stop offset="1" stop-color="#4479BC"/>
</linearGradient>
</defs>
</svg>
