<svg width="22" height="23" viewBox="0 0 22 23" fill="none" xmlns="http://www.w3.org/2000/svg">
<path d="M11 0.661621C4.9335 0.661621 0 5.59512 0 11.6616C0 13.4161 0.4235 15.1486 1.2265 16.7051L0.0495001 20.9181C-0.0824999 21.3966 0.055 21.9081 0.4015 22.2601C0.6655 22.5186 1.0175 22.6616 1.375 22.6616C1.5015 22.6616 1.6225 22.6451 1.7435 22.6121L5.9565 21.4351C7.513 22.2381 9.251 22.6616 11 22.6616C17.0665 22.6616 22 17.7281 22 11.6616C22 5.59512 17.0665 0.661621 11 0.661621ZM16.698 15.7151C16.456 16.3916 15.268 17.0461 14.7345 17.0956C14.201 17.1451 13.7005 17.3376 11.2475 16.3696C8.2885 15.2036 6.4185 12.1731 6.2755 11.9751C6.127 11.7826 5.0875 10.4021 5.0875 8.96662C5.0875 7.53662 5.841 6.83262 6.105 6.54112C6.3745 6.24962 6.688 6.17812 6.8805 6.17812C7.0785 6.17812 7.271 6.17812 7.4415 6.18362C7.645 6.19462 7.876 6.20562 8.096 6.68962C8.3545 7.26162 8.921 8.70262 8.9925 8.85112C9.064 8.99412 9.1135 9.16462 9.0145 9.35712C8.921 9.54962 8.8715 9.67062 8.723 9.84112C8.58 10.0116 8.4205 10.2206 8.2885 10.3526C8.1455 10.4956 7.9915 10.6551 8.162 10.9466C8.3325 11.2381 8.9155 12.1896 9.779 12.9596C10.89 13.9496 11.825 14.2576 12.1165 14.4061C12.408 14.5491 12.5785 14.5271 12.749 14.3291C12.9195 14.1366 13.475 13.4821 13.673 13.1906C13.8655 12.8991 14.058 12.9486 14.3275 13.0476C14.5915 13.1411 16.0215 13.8451 16.313 13.9936C16.6045 14.1366 16.797 14.2081 16.8685 14.3291C16.94 14.4501 16.94 15.0331 16.698 15.7151Z" fill="url(#paint0_linear)"/>
<defs>
<linearGradient id="paint0_linear" x1="11" y1="22.6616" x2="2.44952" y2="4.74141" gradientUnits="userSpaceOnUse">
<stop stop-color="#283C79"/>
<stop offset="1" stop-color="#4479BC"/>
</linearGradient>
</defs>
</svg>
